#!OML:ASF H:\ManfredETheater\Project 1\Capture day 1\Session 1\subject.ASF
:FULLY-SPECIFIED
:DEGREES
136
root -0.992872 21.6417 -0.171666 -167.96 -4.04423 -185.043
lowerback 11.0612 -1.50498 -6.29222
upperback -1.21341 -2.98964 -0.856319
thorax -7.24072 -1.25131 3.14408
lowerneck -17.923 -1.68389 -1.4506
upperneck 9.88135 -2.36365 3.41813
head 5.96639 -0.906538 1.08753
rclavicle -1.21756e-015 -3.13086e-014
rhumerus -64.7004 3.98591 -81.3399
rradius 71.9742
rwrist -0.083189
rhand -26.1286 3.33907
rfingers 7.12502
rthumb 0.421515 -26.6403
lclavicle -1.21756e-015 -3.13086e-014
lhumerus -40.9679 -17.7744 100.464
lradius 107.643
lwrist 10.0548
lhand -27.7419 -17.3839
lfingers 7.12502
lthumb -1.13664 12.5929
rfemur -43.7484 -13.625 18.6494
rtibia 87.0976
rfoot -14.2307 -11.9068
rtoes -26.0835
lfemur -21.3829 -0.703321 -27.7259
ltibia 47.887
lfoot -23.2921 -13.3235
ltoes 6.15012
137
root -0.993395 21.5963 -0.620867 -167.763 -4.14107 -185.565
lowerback 10.8513 -1.73399 -6.72218
upperback -1.3715 -3.35402 -0.930345
thorax -7.23841 -1.41228 3.35826
lowerneck -18.3127 -1.57229 -1.439
upperneck 10.1944 -2.2196 3.38907
head 6.12573 -0.832423 1.08976
rclavicle -5.41688e-015 1.94809e-014
rhumerus -66.0379 3.97459 -80.2616
rradius 72.0628
rwrist 0.189533
rhand -26.3366 3.83643
rfingers 7.12502
rthumb 0.220694 -26.1432
lclavicle -5.41688e-015 1.94809e-014
lhumerus -39.3566 -17.9193 100.487
lradius 108.615
lwrist 10.0135
lhand -27.978 -17.5815
lfingers 7.12502
lthumb -1.36464 12.3939
rfemur -46.0025 -13.42 18.4491
rtibia 86.1813
rfoot -14.5735 -11.5723
rtoes -26.4435
lfemur -19.5212 -0.479533 -28.0209
ltibia 47.2177
lfoot -23.4006 -14.2872
ltoes 6.25929
138
root -0.994399 21.5587 -1.0766 -167.643 -4.24473 -185.995
lowerback 10.6817 -1.96946 -7.05215
upperback -1.50087 -3.71055 -0.965959
thorax -7.22783 -1.57287 3.55479
lowerneck -18.6923 -1.42937 -1.44375
upperneck 10.4869 -2.02786 3.35552
head 6.27623 -0.737019 1.09902
rclavicle 4.2192e-014 -1.19271e-015
rhumerus -67.4094 4.10732 -79.2945
rradius 72.4238
rwrist 0.178741
rhand -26.4294 4.30834
rfingers 7.12502
rthumb 0.131032 -25.6714
lclavicle 4.2192e-014 -1.19271e-015
lhumerus -37.9008 -17.9949 100.531
lradius 109.63
lwrist 9.93833
lhand -28.2095 -17.8139
lfingers 7.12502
lthumb -1.58825 12.1599
rfemur -47.8845 -13.1167 18.3065
rtibia 84.6932
rfoot -14.8029 -11.1252
rtoes -26.788
lfemur -17.5563 -0.235461 -28.1768
ltibia 46.4598
lfoot -23.1566 -15.3667
ltoes 6.19241
139
root -0.995627 21.5271 -1.5384 -167.585 -4.33181 -186.362
lowerback 10.5376 -2.21061 -7.31577
upperback -1.6117 -4.06368 -0.97692
thorax -7.21089 -1.73415 3.73857
lowerneck -19.0267 -1.25404 -1.43748
upperneck 10.7417 -1.78932 3.28872
head 6.40591 -0.622878 1.10175
rclavicle 2.62644e-014 3.23025e-014
rhumerus -68.7909 4.37973 -78.4645
rradius 73.0059
rwrist -0.172907
rhand -26.3787 4.73909
rfingers 7.12502
rthumb 0.180025 -25.2406
lclavicle 2.62644e-014 3.23025e-014
lhumerus -36.6312 -18.0162 100.581
lradius 110.687
lwrist 9.83771
lhand -28.4536 -18.052
lfingers 7.12502
lthumb -1.82399 11.9199
rfemur -49.4144 -12.7193 18.1861
rtibia 82.672
rfoot -14.881 -10.6047
rtoes -27.2162
lfemur -15.5131 0.00343845 -28.2304
ltibia 45.6181
lfoot -22.5366 -16.5101
ltoes 6.04779
140
root -0.997309 21.4987 -2.0068 -167.583 -4.39653 -186.698
lowerback 10.3856 -2.45993 -7.54098
upperback -1.69749 -4.41872 -0.975904
thorax -7.1608 -1.89964 3.9105
lowerneck -19.313 -1.04516 -1.40597
upperneck 10.9567 -1.50395 3.17421
head 6.51353 -0.490818 1.0909
rclavicle -1.54804e-014 -8.54774e-015
rhumerus -70.1407 4.76505 -77.7713
rradius 73.7567
rwrist -0.822651
rhand -26.1724 5.10152
rfingers 7.12502
rthumb 0.379283 -24.8779
lclavicle -1.54804e-014 -8.54774e-015
lhumerus -35.5509 -18.0111 100.62
lradius 111.776
lwrist 9.73696
lhand -28.7203 -18.2657
lfingers 7.12502
lthumb -2.08159 11.7039
rfemur -50.5841 -12.2579 18.0461
rtibia 80.1594
rfoot -14.8231 -10.0102
rtoes -27.6042
lfemur -13.3962 0.196007 -28.2232
ltibia 44.7015
lfoot -21.5695 -17.6596
ltoes 5.58545
141
root -1.00009 21.4713 -2.48163 -167.625 -4.4449 -187.033
lowerback 10.2097 -2.72336 -7.73909
upperback -1.76469 -4.78545 -0.97651
thorax -7.07488 -2.07448 4.0626
lowerneck -19.5241 -0.806893 -1.3414
upperneck 11.1222 -1.17815 3.00326
head 6.59185 -0.344726 1.06144
rclavicle -2.55687e-014 -2.10712e-014
rhumerus -71.4553 5.24621 -77.2198
rradius 74.6393
rwrist -1.68205
rhand -25.8694 5.42951
rfingers 7.12502
rthumb 0.671839 -24.5492
lclavicle -2.55687e-014 -2.10712e-014
lhumerus -34.6714 -18.007 100.634
lradius 112.889
lwrist 9.67322
lhand -29.0154 -18.436
lfingers 7.12502
lthumb -2.36655 11.5306
rfemur -51.4033 -11.773 17.8559
rtibia 77.1977
rfoot -14.6033 -9.34044
rtoes -28.008
lfemur -11.2237 0.287784 -28.1958
ltibia 43.7207
lfoot -20.2586 -18.7819
ltoes 4.88058
142
root -1.00331 21.443 -2.96328 -167.702 -4.47586 -187.34
lowerback 9.9832 -2.99902 -7.89238
upperback -1.81293 -5.15544 -0.974353
thorax -6.93987 -2.25585 4.18579
lowerneck -19.7071 -0.551158 -1.20873
upperneck 11.291 -0.832516 2.73591
head 6.6663 -0.195927 0.992305
rclavicle 2.72832e-014 4.77083e-015
rhumerus -72.7298 5.79136 -76.7994
rradius 75.625
rwrist -2.6121
rhand -25.5275 5.732
rfingers 7.12502
rthumb 1.00214 -24.2454
lclavicle 2.72832e-014 4.77083e-015
lhumerus -33.9911 -18.0471 100.615
lradius 114.014
lwrist 9.72016
lhand -29.3277 -18.5519
lfingers 7.12502
lthumb -2.66817 11.4111
rfemur -51.8824 -11.2626 17.6487
rtibia 73.8255
rfoot -14.1689 -8.60976
rtoes -28.4215
lfemur -9.01815 0.242451 -28.1313
ltibia 42.6883
lfoot -18.616 -19.8455
ltoes 3.90262
143
root -1.00719 21.4115 -3.45168 -167.802 -4.49102 -187.613
lowerback 9.68131 -3.28436 -7.98639
upperback -1.84531 -5.5212 -0.97129
thorax -6.74816 -2.44119 4.26634
lowerneck -19.7953 -0.284735 -1.06987
upperneck 11.4143 -0.469733 2.44494
head 6.71161 -0.0422573 0.916446
rclavicle -1.881e-014 4.96962e-015
rhumerus -73.9773 6.37778 -76.5006
rradius 76.6997
rwrist -3.48886
rhand -25.2095 6.03008
rfingers 7.12502
rthumb 1.30919 -23.9457
lclavicle -1.881e-014 4.96962e-015
lhumerus -33.5041 -18.1568 100.555
lradius 115.137
lwrist 9.90222
lhand -29.6382 -18.6226
lfingers 7.12502
lthumb -2.96805 11.3365
rfemur -52.0412 -10.7468 17.4391
rtibia 70.085
rfoot -13.4334 -7.8272
rtoes -28.952
lfemur -6.80428 0.0263893 -28.0417
ltibia 41.6181
lfoot -16.6672 -20.8233
ltoes 2.63366
